<svg height="496pt" viewBox="-32 0 496 496" width="496pt" xmlns="http://www.w3.org/2000/svg" xmlns:xlink="http://www.w3.org/1999/xlink"><linearGradient id="a" gradientUnits="userSpaceOnUse" x1="216" x2="216" y1="496" y2="0"><stop offset="0" stop-color="#9f2fff"/><stop offset="1" stop-color="#0bb1d3"/></linearGradient><path d="m216 448v16h-128v-16zm128 0h-32v16h32zm0-32h-32v16h32zm-160-304c4.414062 0 8-3.585938 8-8s-3.585938-8-8-8-8 3.585938-8 8 3.585938 8 8 8zm64 0c4.414062 0 8-3.585938 8-8s-3.585938-8-8-8-8 3.585938-8 8 3.585938 8 8 8zm184 136c0 13.230469-10.769531 24-24 24s-24-10.769531-24-24c0-3.679688.902344-7.136719 2.390625-10.257812-22.628906-19.15625-51.03125-29.742188-80.878906-29.742188h-1.511719c0 8.824219-7.175781 16-16 16h-1.472656c.898437 2.511719 1.472656 5.183594 1.472656 8 0 11.0625-7.558594 20.304688-17.761719 23.070312 1.113281 2.769532 1.761719 5.769532 1.761719 8.929688 0 11.0625-7.558594 20.304688-17.761719 23.070312 1.113281 2.769532 1.761719 5.769532 1.761719 8.929688 0 2.816406-.574219 5.488281-1.472656 8h117.753906l42.664062 64h-38.945312v128h-320v-128h-38.945312l42.664062-64h117.753906c-.898437-2.511719-1.472656-5.183594-1.472656-8 0-3.160156.648438-6.160156 1.761719-8.929688-10.203125-2.757812-17.761719-12.007812-17.761719-23.070312 0-3.160156.648438-6.160156 1.761719-8.929688-10.203125-2.757812-17.761719-12.007812-17.761719-23.070312 0-2.816406.574219-5.488281 1.472656-8h-1.472656c-8.824219 0-16-7.175781-16-16h-1.511719c-29.839843 0-58.25 10.59375-80.871093 29.742188 1.480468 3.121093 2.382812 6.578124 2.382812 10.257812 0 13.230469-10.769531 24-24 24s-24-10.769531-24-24 10.769531-24 24-24c3.6875 0 7.152344.902344 10.28125 2.398438 25.679688-22.140626 58.109375-34.398438 92.207031-34.398438h1.511719c0-8.824219 7.175781-16 16-16h8.273438c-14.816407-12.488281-24.273438-31.152344-24.273438-52 0-14.617188 4.832031-29.113281 13.601562-40.808594l55.199219-73.589844c4.503907-6.015624 11.6875-9.601562 19.199219-9.601562s14.695312 3.585938 19.191406 9.601562l55.199219 73.597657c8.777344 11.6875 13.601563 26.175781 13.601563 40.800781 0 20.847656-9.457032 39.511719-24.273438 52h8.28125c8.824219 0 16 7.175781 16 16h1.511719c34.089843 0 66.527343 12.257812 92.207031 34.398438 3.128906-1.496094 6.59375-2.398438 10.28125-2.398438 13.230469 0 24 10.769531 24 24zm-400 0c0-4.414062-3.585938-8-8-8s-8 3.585938-8 8 3.585938 8 8 8 8-3.585938 8-8zm164-72h40c.839844 0 1.65625-.089844 2.488281-.128906-3.351562-9.222656-12.121093-15.871094-22.488281-15.871094s-19.136719 6.648438-22.488281 15.871094c.832031.039062 1.648437.128906 2.488281.128906zm-20-112h80l-33.601562-44.808594c-1.503907-2-3.894532-3.191406-6.398438-3.191406s-4.894531 1.191406-6.398438 3.191406zm1.839844 108.664062c4.921875-16.511718 20.070312-28.664062 38.160156-28.664062s33.238281 12.152344 38.160156 28.664062c19.734375-7.390624 33.839844-26.382812 33.839844-48.664062 0-11.175781-3.695312-22.257812-10.398438-31.191406l-9.601562-12.808594h-104l-9.601562 12.800781c-6.703126 8.941407-10.398438 20.023438-10.398438 31.199219 0 22.273438 14.113281 41.273438 33.839844 48.664062zm-130.894532 179.335938h156.773438l21.335938-32h-156.773438zm25.054688 128h160v-141.574219l-19.71875 29.574219h-140.28125zm288-112h-92.28125l-19.71875-29.574219v141.574219h112zm-105.054688-48 21.335938 32h108.773438l-21.335938-32zm-22.945312-16c4.414062 0 8-3.585938 8-8s-3.585938-8-8-8h-32c-4.414062 0-8 3.585938-8 8s3.585938 8 8 8zm24-40c0-4.414062-3.585938-8-8-8h-64c-4.414062 0-8 3.585938-8 8s3.585938 8 8 8h64c4.414062 0 8-3.585938 8-8zm8-40h-96c-4.414062 0-8 3.585938-8 8s3.585938 8 8 8h96c4.414062 0 8-3.585938 8-8s-3.585938-8-8-8zm24.015625-16-.015625-16h-144v16zm127.984375 40c0-4.414062-3.585938-8-8-8s-8 3.585938-8 8 3.585938 8 8 8 8-3.585938 8-8zm0 0" fill="url(#a)"/></svg>