<svg id="Layer_35" enable-background="new 0 0 64 64" height="512" viewBox="0 0 64 64" width="512" xmlns="http://www.w3.org/2000/svg" xmlns:xlink="http://www.w3.org/1999/xlink"><linearGradient id="SVGID_1_" gradientUnits="userSpaceOnUse" x1="32" x2="32" y1="63" y2="1"><stop offset="0" stop-color="#9f2fff"/><stop offset="1" stop-color="#0bb1d3"/></linearGradient><path d="m5 51h30v-16h-30zm14-4c1.302 0 2.402.839 2.816 2h-5.631c.413-1.161 1.513-2 2.815-2zm-12-10h2v2h2v-2h2v2h2v-2h2v2h2v-2h2v2h2v-2h2v2h2v-2h2v2h2v-2h2v12h-9.101c-.357-1.75-1.639-3.149-3.304-3.715l2.262-3.77-1.715-1.029-2.745 4.576c-2.139.261-3.871 1.855-4.296 3.939h-7.101zm26 16h-10c-1.103 0-2 .897-2 2v2c0 1.103.897 2 2 2h10c1.103 0 2-.897 2-2v-2c0-1.103-.897-2-2-2zm-10 4v-2h10l.002 2zm-15-4c-1.654 0-3 1.346-3 3s1.346 3 3 3 3-1.346 3-3-1.346-3-3-3zm0 4c-.552 0-1-.448-1-1s.448-1 1-1 1 .448 1 1-.448 1-1 1zm8-4c-1.654 0-3 1.346-3 3s1.346 3 3 3 3-1.346 3-3-1.346-3-3-3zm0 4c-.552 0-1-.448-1-1s.448-1 1-1 1 .448 1 1-.448 1-1 1zm42-44h-23.586l5.465-5.465c.723-.723 1.121-1.684 1.121-2.707 0-2.11-1.718-3.828-3.828-3.828-1.022 0-1.984.398-2.707 1.121l-8.872 8.872c-1.202 1.202-2.641 2.151-4.205 2.803 1.007-1.338 1.612-2.996 1.612-4.796 0-4.411-3.589-8-8-8s-8 3.589-8 8c0 2.498 1.152 4.73 2.951 6.199-5.088.963-8.951 5.436-8.951 10.801v3.5c0 .905.355 1.724.921 2.346-.566.546-.921 1.308-.921 2.154v26c0 1.654 1.346 3 3 3h30 2 22c2.757 0 5-2.243 5-5v-40c0-2.757-2.243-5-5-5zm-34 18v-6.965c0-.4.156-.777.439-1.061l4.561-4.56v12.586zm-15-22c0-3.309 2.691-6 6-6s6 2.691 6 6-2.691 6-6 6-6-2.691-6-6zm-6 17c0-4.963 4.037-9 9-9h4l2.521-.35c3.192-.457 6.206-1.964 8.485-4.243l8.872-8.872c.341-.34.812-.535 1.294-.535 1.008 0 1.828.82 1.828 1.828 0 .481-.195.953-.535 1.293l-15.44 15.44c-.661.661-1.025 1.54-1.025 2.474v6.965h-4.351c.218-.456.351-.961.351-1.5 0-1.93-1.57-3.5-3.5-3.5h-8.5v2h8.5c.827 0 1.5.673 1.5 1.5s-.673 1.5-1.5 1.5h-3.5-6.5c-.827 0-1.5-.673-1.5-1.5zm31 35h-30c-.552 0-1-.448-1-1v-26c0-.552.448-1 1-1h.5 6.5 3.5 9.5 12c.552 0 1 .448 1 1v26c0 .552-.448 1-1 1zm5-18h18v6h-18zm18-2h-18v-6h18zm0-16h-22v-6h22zm-22 2h22v6h-18.184c-.414-1.161-1.514-2-2.816-2h-1zm26 31c0 1.654-1.346 3-3 3h-19.184c.112-.314.184-.648.184-1v-9h18c1.103 0 2-.897 2-2v-30c0-1.103-.897-2-2-2h-22c-1.103 0-2 .897-2 2v12h-2v-13c0-1.654 1.346-3 3-3h24c1.654 0 3 1.346 3 3zm-5-5c-1.654 0-3 1.346-3 3s1.346 3 3 3 3-1.346 3-3-1.346-3-3-3zm0 4c-.552 0-1-.448-1-1s.448-1 1-1 1 .448 1 1-.448 1-1 1zm-15-4h2v2h-2zm0 4h2v2h-2zm-2-34h-2v-2h2zm4 0h-2v-2h2zm12 8h-2v-2h2zm-4 0h-2v-2h2zm-10 8v-2h2v2zm12 6h2v2h-2zm-4 0h2v2h-2z" fill="url(#SVGID_1_)"/></svg>